<mxfile host="app.diagrams.net" modified="2023-05-23T14:50:29.556Z" agent="Mozilla/5.0 (Windows NT 10.0; Win64; x64) AppleWebKit/537.36 (KHTML, like Gecko) Chrome/113.0.0.0 Safari/537.36" etag="W6qNazSQ-m4PKvQwfiI8" version="21.2.9" type="device">
  <diagram id="C5RBs43oDa-KdzZeNtuy" name="Page-1">
    <mxGraphModel dx="1050" dy="541" grid="1" gridSize="10" guides="1" tooltips="1" connect="1" arrows="1" fold="1" page="1" pageScale="1" pageWidth="827" pageHeight="1169" math="0" shadow="0">
      <root>
        <mxCell id="WIyWlLk6GJQsqaUBKTNV-0" />
        <mxCell id="WIyWlLk6GJQsqaUBKTNV-1" parent="WIyWlLk6GJQsqaUBKTNV-0" />
        <mxCell id="4DhZCOvuepyt47Wr3g0Q-6" value="Test oxygen level in the room" style="rounded=1;whiteSpace=wrap;html=1;" parent="WIyWlLk6GJQsqaUBKTNV-1" vertex="1">
          <mxGeometry x="40" y="120" width="120" height="60" as="geometry" />
        </mxCell>
        <mxCell id="4DhZCOvuepyt47Wr3g0Q-7" value="Is oxygen level&lt;br&gt;&amp;nbsp;within safe levels" style="rhombus;whiteSpace=wrap;html=1;" parent="WIyWlLk6GJQsqaUBKTNV-1" vertex="1">
          <mxGeometry x="210" y="260" width="120" height="120" as="geometry" />
        </mxCell>
        <mxCell id="4DhZCOvuepyt47Wr3g0Q-9" value="" style="endArrow=classic;html=1;rounded=0;exitX=0;exitY=0.5;exitDx=0;exitDy=0;" parent="WIyWlLk6GJQsqaUBKTNV-1" source="4DhZCOvuepyt47Wr3g0Q-7" edge="1">
          <mxGeometry width="50" height="50" relative="1" as="geometry">
            <mxPoint x="260" y="380" as="sourcePoint" />
            <mxPoint x="150" y="320" as="targetPoint" />
          </mxGeometry>
        </mxCell>
        <mxCell id="4DhZCOvuepyt47Wr3g0Q-13" value="" style="edgeStyle=orthogonalEdgeStyle;rounded=0;orthogonalLoop=1;jettySize=auto;html=1;" parent="WIyWlLk6GJQsqaUBKTNV-1" source="4DhZCOvuepyt47Wr3g0Q-10" target="4DhZCOvuepyt47Wr3g0Q-11" edge="1">
          <mxGeometry relative="1" as="geometry" />
        </mxCell>
        <mxCell id="4DhZCOvuepyt47Wr3g0Q-10" value="No" style="rounded=1;whiteSpace=wrap;html=1;" parent="WIyWlLk6GJQsqaUBKTNV-1" vertex="1">
          <mxGeometry x="70" y="300" width="80" height="40" as="geometry" />
        </mxCell>
        <mxCell id="4DhZCOvuepyt47Wr3g0Q-11" value="Full lockout shut down all solenoids and disable safety relay. Flash red led change status to&amp;nbsp;Lockout Active" style="rounded=1;whiteSpace=wrap;html=1;" parent="WIyWlLk6GJQsqaUBKTNV-1" vertex="1">
          <mxGeometry x="40" y="380" width="140" height="80" as="geometry" />
        </mxCell>
        <mxCell id="4DhZCOvuepyt47Wr3g0Q-15" value="Yes" style="rounded=1;whiteSpace=wrap;html=1;" parent="WIyWlLk6GJQsqaUBKTNV-1" vertex="1">
          <mxGeometry x="390" y="300" width="80" height="40" as="geometry" />
        </mxCell>
        <mxCell id="4DhZCOvuepyt47Wr3g0Q-19" value="" style="endArrow=classic;html=1;rounded=0;exitX=1;exitY=0.5;exitDx=0;exitDy=0;entryX=0;entryY=0.5;entryDx=0;entryDy=0;" parent="WIyWlLk6GJQsqaUBKTNV-1" source="4DhZCOvuepyt47Wr3g0Q-7" target="4DhZCOvuepyt47Wr3g0Q-15" edge="1">
          <mxGeometry width="50" height="50" relative="1" as="geometry">
            <mxPoint x="260" y="380" as="sourcePoint" />
            <mxPoint x="310" y="330" as="targetPoint" />
          </mxGeometry>
        </mxCell>
        <mxCell id="4DhZCOvuepyt47Wr3g0Q-53" value="" style="endArrow=classic;html=1;rounded=0;exitX=1;exitY=0.5;exitDx=0;exitDy=0;entryX=0;entryY=0.5;entryDx=0;entryDy=0;" parent="WIyWlLk6GJQsqaUBKTNV-1" source="4DhZCOvuepyt47Wr3g0Q-15" edge="1">
          <mxGeometry width="50" height="50" relative="1" as="geometry">
            <mxPoint x="430" y="490" as="sourcePoint" />
            <mxPoint x="520" y="320" as="targetPoint" />
          </mxGeometry>
        </mxCell>
        <mxCell id="4DhZCOvuepyt47Wr3g0Q-66" value="Does the sensor return a value greater than 0.0" style="rounded=1;whiteSpace=wrap;html=1;" parent="WIyWlLk6GJQsqaUBKTNV-1" vertex="1">
          <mxGeometry x="210" y="120" width="120" height="60" as="geometry" />
        </mxCell>
        <mxCell id="4DhZCOvuepyt47Wr3g0Q-68" value="No" style="rounded=1;whiteSpace=wrap;html=1;" parent="WIyWlLk6GJQsqaUBKTNV-1" vertex="1">
          <mxGeometry x="380" y="130" width="80" height="40" as="geometry" />
        </mxCell>
        <mxCell id="4DhZCOvuepyt47Wr3g0Q-69" value="Yes" style="rounded=1;whiteSpace=wrap;html=1;" parent="WIyWlLk6GJQsqaUBKTNV-1" vertex="1">
          <mxGeometry x="230" y="200" width="80" height="40" as="geometry" />
        </mxCell>
        <mxCell id="4DhZCOvuepyt47Wr3g0Q-70" value="" style="endArrow=classic;html=1;rounded=0;exitX=1;exitY=0.5;exitDx=0;exitDy=0;entryX=0;entryY=0.5;entryDx=0;entryDy=0;" parent="WIyWlLk6GJQsqaUBKTNV-1" source="4DhZCOvuepyt47Wr3g0Q-66" target="4DhZCOvuepyt47Wr3g0Q-68" edge="1">
          <mxGeometry width="50" height="50" relative="1" as="geometry">
            <mxPoint x="350" y="170" as="sourcePoint" />
            <mxPoint x="400" y="120" as="targetPoint" />
          </mxGeometry>
        </mxCell>
        <mxCell id="4DhZCOvuepyt47Wr3g0Q-71" value="" style="endArrow=classic;html=1;rounded=0;exitX=1;exitY=0.5;exitDx=0;exitDy=0;entryX=0;entryY=0.5;entryDx=0;entryDy=0;" parent="WIyWlLk6GJQsqaUBKTNV-1" source="4DhZCOvuepyt47Wr3g0Q-6" target="4DhZCOvuepyt47Wr3g0Q-66" edge="1">
          <mxGeometry width="50" height="50" relative="1" as="geometry">
            <mxPoint x="350" y="170" as="sourcePoint" />
            <mxPoint x="400" y="120" as="targetPoint" />
          </mxGeometry>
        </mxCell>
        <mxCell id="4DhZCOvuepyt47Wr3g0Q-72" value="" style="endArrow=classic;html=1;rounded=0;exitX=0.5;exitY=1;exitDx=0;exitDy=0;entryX=0.5;entryY=0;entryDx=0;entryDy=0;" parent="WIyWlLk6GJQsqaUBKTNV-1" source="4DhZCOvuepyt47Wr3g0Q-66" target="4DhZCOvuepyt47Wr3g0Q-69" edge="1">
          <mxGeometry width="50" height="50" relative="1" as="geometry">
            <mxPoint x="350" y="170" as="sourcePoint" />
            <mxPoint x="400" y="120" as="targetPoint" />
          </mxGeometry>
        </mxCell>
        <mxCell id="4DhZCOvuepyt47Wr3g0Q-73" value="" style="endArrow=classic;html=1;rounded=0;exitX=0.5;exitY=1;exitDx=0;exitDy=0;entryX=0.5;entryY=0;entryDx=0;entryDy=0;" parent="WIyWlLk6GJQsqaUBKTNV-1" source="4DhZCOvuepyt47Wr3g0Q-69" target="4DhZCOvuepyt47Wr3g0Q-7" edge="1">
          <mxGeometry width="50" height="50" relative="1" as="geometry">
            <mxPoint x="350" y="170" as="sourcePoint" />
            <mxPoint x="400" y="120" as="targetPoint" />
          </mxGeometry>
        </mxCell>
        <mxCell id="4DhZCOvuepyt47Wr3g0Q-74" value="Full lockout shut down all solenoids and disable safety relay. Flash red led and change status to sensor error" style="rounded=1;whiteSpace=wrap;html=1;" parent="WIyWlLk6GJQsqaUBKTNV-1" vertex="1">
          <mxGeometry x="414" y="190" width="150" height="80" as="geometry" />
        </mxCell>
        <mxCell id="4DhZCOvuepyt47Wr3g0Q-78" value="" style="endArrow=classic;html=1;rounded=0;exitX=1;exitY=0.5;exitDx=0;exitDy=0;" parent="WIyWlLk6GJQsqaUBKTNV-1" source="4DhZCOvuepyt47Wr3g0Q-68" edge="1">
          <mxGeometry width="50" height="50" relative="1" as="geometry">
            <mxPoint x="350" y="140" as="sourcePoint" />
            <mxPoint x="520" y="150" as="targetPoint" />
          </mxGeometry>
        </mxCell>
        <mxCell id="4DhZCOvuepyt47Wr3g0Q-79" value="Activate safety relay to allow dosing" style="rounded=1;whiteSpace=wrap;html=1;" parent="WIyWlLk6GJQsqaUBKTNV-1" vertex="1">
          <mxGeometry x="520" y="290" width="130" height="60" as="geometry" />
        </mxCell>
        <mxCell id="4DhZCOvuepyt47Wr3g0Q-80" value="Is oxygen level greater than the target?" style="rounded=1;whiteSpace=wrap;html=1;" parent="WIyWlLk6GJQsqaUBKTNV-1" vertex="1">
          <mxGeometry x="525" y="500" width="120" height="60" as="geometry" />
        </mxCell>
        <mxCell id="4DhZCOvuepyt47Wr3g0Q-83" value="Pulse the gas solenoid with the respective on/off times and increase the cycle count by 1&amp;nbsp;" style="rounded=1;whiteSpace=wrap;html=1;" parent="WIyWlLk6GJQsqaUBKTNV-1" vertex="1">
          <mxGeometry x="170" y="485" width="150" height="90" as="geometry" />
        </mxCell>
        <mxCell id="4DhZCOvuepyt47Wr3g0Q-86" value="" style="endArrow=classic;html=1;rounded=0;exitX=0;exitY=0.5;exitDx=0;exitDy=0;entryX=1;entryY=0.5;entryDx=0;entryDy=0;" parent="WIyWlLk6GJQsqaUBKTNV-1" source="4DhZCOvuepyt47Wr3g0Q-80" target="YBQNlpjxrBMBjqaQJa3I-0" edge="1">
          <mxGeometry width="50" height="50" relative="1" as="geometry">
            <mxPoint x="660" y="520" as="sourcePoint" />
            <mxPoint x="470" y="530" as="targetPoint" />
          </mxGeometry>
        </mxCell>
        <UserObject label="&lt;font style=&quot;font-size: 27px;&quot;&gt;&lt;b&gt;Gas dispenser sequence of events&lt;/b&gt;&lt;/font&gt;" placeholders="1" name="Variable" id="4DhZCOvuepyt47Wr3g0Q-91">
          <mxCell style="text;html=1;strokeColor=none;fillColor=none;align=center;verticalAlign=middle;whiteSpace=wrap;overflow=hidden;" parent="WIyWlLk6GJQsqaUBKTNV-1" vertex="1">
            <mxGeometry x="175" y="10" width="480" height="60" as="geometry" />
          </mxCell>
        </UserObject>
        <mxCell id="YBQNlpjxrBMBjqaQJa3I-0" value="Yes" style="rounded=1;whiteSpace=wrap;html=1;" parent="WIyWlLk6GJQsqaUBKTNV-1" vertex="1">
          <mxGeometry x="390" y="510" width="80" height="40" as="geometry" />
        </mxCell>
        <mxCell id="YBQNlpjxrBMBjqaQJa3I-1" value="No" style="rounded=1;whiteSpace=wrap;html=1;" parent="WIyWlLk6GJQsqaUBKTNV-1" vertex="1">
          <mxGeometry x="690" y="510" width="80" height="40" as="geometry" />
        </mxCell>
        <mxCell id="YBQNlpjxrBMBjqaQJa3I-2" value="" style="endArrow=classic;html=1;rounded=0;exitX=1;exitY=0.5;exitDx=0;exitDy=0;entryX=0;entryY=0.5;entryDx=0;entryDy=0;" parent="WIyWlLk6GJQsqaUBKTNV-1" source="4DhZCOvuepyt47Wr3g0Q-80" target="YBQNlpjxrBMBjqaQJa3I-1" edge="1">
          <mxGeometry width="50" height="50" relative="1" as="geometry">
            <mxPoint x="390" y="516" as="sourcePoint" />
            <mxPoint x="440" y="466" as="targetPoint" />
          </mxGeometry>
        </mxCell>
        <mxCell id="YBQNlpjxrBMBjqaQJa3I-29" style="edgeStyle=orthogonalEdgeStyle;rounded=0;orthogonalLoop=1;jettySize=auto;html=1;exitX=1;exitY=0.5;exitDx=0;exitDy=0;" parent="WIyWlLk6GJQsqaUBKTNV-1" source="YBQNlpjxrBMBjqaQJa3I-3" edge="1">
          <mxGeometry relative="1" as="geometry">
            <mxPoint x="810" y="633" as="targetPoint" />
          </mxGeometry>
        </mxCell>
        <mxCell id="YBQNlpjxrBMBjqaQJa3I-3" value="Turn off solenoid&lt;br&gt;&amp;nbsp;relay&amp;nbsp;" style="rounded=1;whiteSpace=wrap;html=1;" parent="WIyWlLk6GJQsqaUBKTNV-1" vertex="1">
          <mxGeometry x="682.75" y="606" width="94.5" height="54" as="geometry" />
        </mxCell>
        <mxCell id="YBQNlpjxrBMBjqaQJa3I-4" value="Has the solenoid cycle count been reached 4" style="rounded=1;whiteSpace=wrap;html=1;" parent="WIyWlLk6GJQsqaUBKTNV-1" vertex="1">
          <mxGeometry x="175" y="620" width="140" height="80" as="geometry" />
        </mxCell>
        <mxCell id="YBQNlpjxrBMBjqaQJa3I-5" value="No" style="rounded=1;whiteSpace=wrap;html=1;" parent="WIyWlLk6GJQsqaUBKTNV-1" vertex="1">
          <mxGeometry x="50" y="640" width="80" height="40" as="geometry" />
        </mxCell>
        <mxCell id="YBQNlpjxrBMBjqaQJa3I-22" style="edgeStyle=orthogonalEdgeStyle;rounded=0;orthogonalLoop=1;jettySize=auto;html=1;entryX=0.5;entryY=0;entryDx=0;entryDy=0;" parent="WIyWlLk6GJQsqaUBKTNV-1" source="YBQNlpjxrBMBjqaQJa3I-6" target="YBQNlpjxrBMBjqaQJa3I-7" edge="1">
          <mxGeometry relative="1" as="geometry" />
        </mxCell>
        <mxCell id="YBQNlpjxrBMBjqaQJa3I-6" value="Yes" style="rounded=1;whiteSpace=wrap;html=1;" parent="WIyWlLk6GJQsqaUBKTNV-1" vertex="1">
          <mxGeometry x="350" y="640" width="80" height="40" as="geometry" />
        </mxCell>
        <mxCell id="YBQNlpjxrBMBjqaQJa3I-23" style="edgeStyle=orthogonalEdgeStyle;rounded=0;orthogonalLoop=1;jettySize=auto;html=1;exitX=1;exitY=0.5;exitDx=0;exitDy=0;entryX=0;entryY=0.5;entryDx=0;entryDy=0;" parent="WIyWlLk6GJQsqaUBKTNV-1" source="YBQNlpjxrBMBjqaQJa3I-7" target="YBQNlpjxrBMBjqaQJa3I-19" edge="1">
          <mxGeometry relative="1" as="geometry" />
        </mxCell>
        <mxCell id="YBQNlpjxrBMBjqaQJa3I-7" value="Turn off solenoid and&lt;br&gt;&amp;nbsp;wait for the pause period to elapse&amp;nbsp;" style="rounded=1;whiteSpace=wrap;html=1;" parent="WIyWlLk6GJQsqaUBKTNV-1" vertex="1">
          <mxGeometry x="320" y="720" width="140" height="80" as="geometry" />
        </mxCell>
        <mxCell id="YBQNlpjxrBMBjqaQJa3I-8" value="" style="endArrow=classic;html=1;rounded=0;exitX=0;exitY=0.5;exitDx=0;exitDy=0;entryX=1;entryY=0.5;entryDx=0;entryDy=0;" parent="WIyWlLk6GJQsqaUBKTNV-1" source="YBQNlpjxrBMBjqaQJa3I-0" target="4DhZCOvuepyt47Wr3g0Q-83" edge="1">
          <mxGeometry width="50" height="50" relative="1" as="geometry">
            <mxPoint x="390" y="736" as="sourcePoint" />
            <mxPoint x="430" y="616" as="targetPoint" />
          </mxGeometry>
        </mxCell>
        <mxCell id="YBQNlpjxrBMBjqaQJa3I-9" value="" style="endArrow=classic;html=1;rounded=0;exitX=0.5;exitY=1;exitDx=0;exitDy=0;entryX=0.5;entryY=0;entryDx=0;entryDy=0;" parent="WIyWlLk6GJQsqaUBKTNV-1" edge="1">
          <mxGeometry width="50" height="50" relative="1" as="geometry">
            <mxPoint x="729.5" y="550" as="sourcePoint" />
            <mxPoint x="729.5" y="606" as="targetPoint" />
          </mxGeometry>
        </mxCell>
        <mxCell id="YBQNlpjxrBMBjqaQJa3I-10" value="Get bed oxygen level" style="rounded=1;whiteSpace=wrap;html=1;" parent="WIyWlLk6GJQsqaUBKTNV-1" vertex="1">
          <mxGeometry x="522.5" y="390" width="125" height="60" as="geometry" />
        </mxCell>
        <mxCell id="YBQNlpjxrBMBjqaQJa3I-11" value="" style="endArrow=classic;html=1;rounded=0;exitX=0.5;exitY=1;exitDx=0;exitDy=0;entryX=0.5;entryY=0;entryDx=0;entryDy=0;" parent="WIyWlLk6GJQsqaUBKTNV-1" source="4DhZCOvuepyt47Wr3g0Q-79" target="YBQNlpjxrBMBjqaQJa3I-10" edge="1">
          <mxGeometry width="50" height="50" relative="1" as="geometry">
            <mxPoint x="390" y="520" as="sourcePoint" />
            <mxPoint x="440" y="470" as="targetPoint" />
          </mxGeometry>
        </mxCell>
        <mxCell id="YBQNlpjxrBMBjqaQJa3I-12" value="" style="endArrow=classic;html=1;rounded=0;exitX=0.5;exitY=1;exitDx=0;exitDy=0;entryX=0.5;entryY=0;entryDx=0;entryDy=0;" parent="WIyWlLk6GJQsqaUBKTNV-1" source="YBQNlpjxrBMBjqaQJa3I-10" target="4DhZCOvuepyt47Wr3g0Q-80" edge="1">
          <mxGeometry width="50" height="50" relative="1" as="geometry">
            <mxPoint x="390" y="520" as="sourcePoint" />
            <mxPoint x="440" y="470" as="targetPoint" />
          </mxGeometry>
        </mxCell>
        <mxCell id="YBQNlpjxrBMBjqaQJa3I-14" value="" style="endArrow=classic;html=1;rounded=0;exitX=0.5;exitY=1;exitDx=0;exitDy=0;entryX=0.5;entryY=0;entryDx=0;entryDy=0;" parent="WIyWlLk6GJQsqaUBKTNV-1" source="4DhZCOvuepyt47Wr3g0Q-83" target="YBQNlpjxrBMBjqaQJa3I-4" edge="1">
          <mxGeometry width="50" height="50" relative="1" as="geometry">
            <mxPoint x="390" y="630" as="sourcePoint" />
            <mxPoint x="440" y="580" as="targetPoint" />
          </mxGeometry>
        </mxCell>
        <mxCell id="YBQNlpjxrBMBjqaQJa3I-15" value="" style="endArrow=classic;html=1;rounded=0;exitX=0;exitY=0.5;exitDx=0;exitDy=0;entryX=1;entryY=0.5;entryDx=0;entryDy=0;" parent="WIyWlLk6GJQsqaUBKTNV-1" source="YBQNlpjxrBMBjqaQJa3I-4" target="YBQNlpjxrBMBjqaQJa3I-5" edge="1">
          <mxGeometry width="50" height="50" relative="1" as="geometry">
            <mxPoint x="390" y="620" as="sourcePoint" />
            <mxPoint x="440" y="570" as="targetPoint" />
          </mxGeometry>
        </mxCell>
        <mxCell id="YBQNlpjxrBMBjqaQJa3I-16" value="" style="endArrow=classic;html=1;rounded=0;exitX=0.5;exitY=0;exitDx=0;exitDy=0;entryX=0;entryY=0.5;entryDx=0;entryDy=0;" parent="WIyWlLk6GJQsqaUBKTNV-1" source="YBQNlpjxrBMBjqaQJa3I-5" target="4DhZCOvuepyt47Wr3g0Q-83" edge="1">
          <mxGeometry width="50" height="50" relative="1" as="geometry">
            <mxPoint x="390" y="620" as="sourcePoint" />
            <mxPoint x="440" y="570" as="targetPoint" />
            <Array as="points">
              <mxPoint x="90" y="530" />
            </Array>
          </mxGeometry>
        </mxCell>
        <mxCell id="YBQNlpjxrBMBjqaQJa3I-17" value="" style="endArrow=classic;html=1;rounded=0;exitX=1;exitY=0.5;exitDx=0;exitDy=0;entryX=0;entryY=0.5;entryDx=0;entryDy=0;" parent="WIyWlLk6GJQsqaUBKTNV-1" source="YBQNlpjxrBMBjqaQJa3I-4" target="YBQNlpjxrBMBjqaQJa3I-6" edge="1">
          <mxGeometry width="50" height="50" relative="1" as="geometry">
            <mxPoint x="390" y="720" as="sourcePoint" />
            <mxPoint x="440" y="670" as="targetPoint" />
          </mxGeometry>
        </mxCell>
        <mxCell id="YBQNlpjxrBMBjqaQJa3I-45" style="edgeStyle=orthogonalEdgeStyle;rounded=0;orthogonalLoop=1;jettySize=auto;html=1;exitX=1;exitY=0.5;exitDx=0;exitDy=0;entryX=1;entryY=0.5;entryDx=0;entryDy=0;" parent="WIyWlLk6GJQsqaUBKTNV-1" source="YBQNlpjxrBMBjqaQJa3I-18" target="YBQNlpjxrBMBjqaQJa3I-10" edge="1">
          <mxGeometry relative="1" as="geometry">
            <Array as="points">
              <mxPoint x="810" y="760" />
              <mxPoint x="810" y="420" />
            </Array>
          </mxGeometry>
        </mxCell>
        <mxCell id="YBQNlpjxrBMBjqaQJa3I-18" value="Yes" style="rounded=1;whiteSpace=wrap;html=1;" parent="WIyWlLk6GJQsqaUBKTNV-1" vertex="1">
          <mxGeometry x="680" y="740" width="80" height="40" as="geometry" />
        </mxCell>
        <mxCell id="YBQNlpjxrBMBjqaQJa3I-24" style="edgeStyle=orthogonalEdgeStyle;rounded=0;orthogonalLoop=1;jettySize=auto;html=1;exitX=1;exitY=0.5;exitDx=0;exitDy=0;entryX=0;entryY=0.5;entryDx=0;entryDy=0;" parent="WIyWlLk6GJQsqaUBKTNV-1" source="YBQNlpjxrBMBjqaQJa3I-19" target="YBQNlpjxrBMBjqaQJa3I-18" edge="1">
          <mxGeometry relative="1" as="geometry" />
        </mxCell>
        <mxCell id="YBQNlpjxrBMBjqaQJa3I-43" style="edgeStyle=orthogonalEdgeStyle;rounded=0;orthogonalLoop=1;jettySize=auto;html=1;exitX=0.5;exitY=1;exitDx=0;exitDy=0;entryX=0.5;entryY=0;entryDx=0;entryDy=0;" parent="WIyWlLk6GJQsqaUBKTNV-1" source="YBQNlpjxrBMBjqaQJa3I-19" target="YBQNlpjxrBMBjqaQJa3I-41" edge="1">
          <mxGeometry relative="1" as="geometry" />
        </mxCell>
        <mxCell id="YBQNlpjxrBMBjqaQJa3I-19" value="Hold off times elapsed&amp;nbsp;" style="rounded=1;whiteSpace=wrap;html=1;" parent="WIyWlLk6GJQsqaUBKTNV-1" vertex="1">
          <mxGeometry x="500" y="720" width="140" height="80" as="geometry" />
        </mxCell>
        <mxCell id="YBQNlpjxrBMBjqaQJa3I-36" style="edgeStyle=orthogonalEdgeStyle;rounded=0;orthogonalLoop=1;jettySize=auto;html=1;exitX=1;exitY=0.5;exitDx=0;exitDy=0;entryX=0;entryY=0.5;entryDx=0;entryDy=0;" parent="WIyWlLk6GJQsqaUBKTNV-1" source="YBQNlpjxrBMBjqaQJa3I-30" target="YBQNlpjxrBMBjqaQJa3I-31" edge="1">
          <mxGeometry relative="1" as="geometry" />
        </mxCell>
        <mxCell id="YBQNlpjxrBMBjqaQJa3I-30" value="Increase error check by 1" style="rounded=1;whiteSpace=wrap;html=1;" parent="WIyWlLk6GJQsqaUBKTNV-1" vertex="1">
          <mxGeometry x="520" y="125" width="100" height="50" as="geometry" />
        </mxCell>
        <mxCell id="YBQNlpjxrBMBjqaQJa3I-37" style="edgeStyle=orthogonalEdgeStyle;rounded=0;orthogonalLoop=1;jettySize=auto;html=1;exitX=0.75;exitY=1;exitDx=0;exitDy=0;entryX=0.5;entryY=0;entryDx=0;entryDy=0;" parent="WIyWlLk6GJQsqaUBKTNV-1" source="YBQNlpjxrBMBjqaQJa3I-31" target="YBQNlpjxrBMBjqaQJa3I-35" edge="1">
          <mxGeometry relative="1" as="geometry" />
        </mxCell>
        <mxCell id="YBQNlpjxrBMBjqaQJa3I-38" style="edgeStyle=orthogonalEdgeStyle;rounded=0;orthogonalLoop=1;jettySize=auto;html=1;exitX=0.25;exitY=1;exitDx=0;exitDy=0;entryX=0.5;entryY=0;entryDx=0;entryDy=0;" parent="WIyWlLk6GJQsqaUBKTNV-1" source="YBQNlpjxrBMBjqaQJa3I-31" target="YBQNlpjxrBMBjqaQJa3I-33" edge="1">
          <mxGeometry relative="1" as="geometry" />
        </mxCell>
        <mxCell id="YBQNlpjxrBMBjqaQJa3I-31" value="Does error check = 8" style="rounded=1;whiteSpace=wrap;html=1;" parent="WIyWlLk6GJQsqaUBKTNV-1" vertex="1">
          <mxGeometry x="660" y="130" width="80" height="40" as="geometry" />
        </mxCell>
        <mxCell id="YBQNlpjxrBMBjqaQJa3I-39" style="edgeStyle=orthogonalEdgeStyle;rounded=0;orthogonalLoop=1;jettySize=auto;html=1;exitX=0;exitY=0.5;exitDx=0;exitDy=0;entryX=1;entryY=0.5;entryDx=0;entryDy=0;" parent="WIyWlLk6GJQsqaUBKTNV-1" source="YBQNlpjxrBMBjqaQJa3I-33" target="4DhZCOvuepyt47Wr3g0Q-74" edge="1">
          <mxGeometry relative="1" as="geometry" />
        </mxCell>
        <mxCell id="YBQNlpjxrBMBjqaQJa3I-33" value="Yes" style="rounded=1;whiteSpace=wrap;html=1;" parent="WIyWlLk6GJQsqaUBKTNV-1" vertex="1">
          <mxGeometry x="610" y="210" width="80" height="40" as="geometry" />
        </mxCell>
        <mxCell id="YBQNlpjxrBMBjqaQJa3I-40" style="edgeStyle=orthogonalEdgeStyle;rounded=0;orthogonalLoop=1;jettySize=auto;html=1;exitX=1;exitY=0.5;exitDx=0;exitDy=0;entryX=0.5;entryY=0;entryDx=0;entryDy=0;" parent="WIyWlLk6GJQsqaUBKTNV-1" source="YBQNlpjxrBMBjqaQJa3I-35" target="4DhZCOvuepyt47Wr3g0Q-66" edge="1">
          <mxGeometry relative="1" as="geometry">
            <mxPoint x="270" y="110" as="targetPoint" />
            <Array as="points">
              <mxPoint x="810" y="230" />
              <mxPoint x="810" y="100" />
              <mxPoint x="271" y="100" />
            </Array>
          </mxGeometry>
        </mxCell>
        <mxCell id="YBQNlpjxrBMBjqaQJa3I-35" value="No" style="rounded=1;whiteSpace=wrap;html=1;" parent="WIyWlLk6GJQsqaUBKTNV-1" vertex="1">
          <mxGeometry x="720" y="210" width="80" height="40" as="geometry" />
        </mxCell>
        <mxCell id="YBQNlpjxrBMBjqaQJa3I-42" style="edgeStyle=orthogonalEdgeStyle;rounded=0;orthogonalLoop=1;jettySize=auto;html=1;exitX=0;exitY=0.5;exitDx=0;exitDy=0;entryX=0.5;entryY=1;entryDx=0;entryDy=0;" parent="WIyWlLk6GJQsqaUBKTNV-1" source="YBQNlpjxrBMBjqaQJa3I-41" target="YBQNlpjxrBMBjqaQJa3I-7" edge="1">
          <mxGeometry relative="1" as="geometry" />
        </mxCell>
        <mxCell id="YBQNlpjxrBMBjqaQJa3I-41" value="No" style="rounded=1;whiteSpace=wrap;html=1;" parent="WIyWlLk6GJQsqaUBKTNV-1" vertex="1">
          <mxGeometry x="530" y="840" width="80" height="40" as="geometry" />
        </mxCell>
      </root>
    </mxGraphModel>
  </diagram>
</mxfile>
